<svg width="14" height="15" viewBox="0 0 14 15" fill="none" xmlns="http://www.w3.org/2000/svg">
<path d="M13 8.06085H8V13.0609C8 13.3261 7.89464 13.5804 7.70711 13.768C7.51957 13.9555 7.26522 14.0609 7 14.0609C6.73478 14.0609 6.48043 13.9555 6.29289 13.768C6.10536 13.5804 6 13.3261 6 13.0609V8.06085H1C0.734784 8.06085 0.48043 7.95549 0.292893 7.76796C0.105357 7.58042 0 7.32607 0 7.06085C0 6.79564 0.105357 6.54128 0.292893 6.35375C0.48043 6.16621 0.734784 6.06085 1 6.06085H6V1.06085C6 0.795636 6.10536 0.541281 6.29289 0.353745C6.48043 0.166209 6.73478 0.0608521 7 0.0608521C7.26522 0.0608521 7.51957 0.166209 7.70711 0.353745C7.89464 0.541281 8 0.795636 8 1.06085V6.06085H13C13.2652 6.06085 13.5196 6.16621 13.7071 6.35375C13.8946 6.54128 14 6.79564 14 7.06085C14 7.32607 13.8946 7.58042 13.7071 7.76796C13.5196 7.95549 13.2652 8.06085 13 8.06085Z" fill="#235AFF"/>
</svg>
