<svg width="24" height="24" viewBox="0 0 24 24" fill="none" xmlns="http://www.w3.org/2000/svg">
<path d="M4.17157 5.17157L4.52513 5.52513L4.52513 5.52513L4.17157 5.17157ZM19.8284 18.8284L19.4749 18.4749L19.4749 18.4749L19.8284 18.8284ZM19.8284 5.17157L19.4749 5.52513L19.4749 5.52513L19.8284 5.17157ZM17 6.5L16.5 6.5L16.5 6.5L17 6.5ZM15.5 8L15.5 7.5L15.5 8ZM14 6.5L13.5 6.5L13.5 6.5L14 6.5ZM10 6.5L9.5 6.5L9.5 6.5L10 6.5ZM8.50001 8L8.50001 8.5L8.50001 8ZM7 6.5L6.5 6.5L6.5 6.5L7 6.5ZM14 4.30005L13.5 4.30005L14 4.30005ZM13.9561 4.04451L13.6023 4.39783L13.9561 4.04451ZM17 4.43245L16.5 4.43245L17 4.43245ZM17.0509 4.15424L16.7206 3.77888L17.0509 4.15424ZM10.0439 4.04452L10.3977 4.39783L10.0439 4.04452ZM7 4.43245L6.5 4.43245L7 4.43245ZM6.9491 4.15423L7.27941 3.77888L6.9491 4.15423ZM4.52513 5.52513C5.01116 5.03909 5.66705 4.77133 6.73451 4.63451L6.60738 3.64262C5.43224 3.79325 4.52497 4.11107 3.81802 4.81802L4.52513 5.52513ZM3.5 12C3.5 10.1002 3.50106 8.72573 3.64199 7.67754C3.78098 6.64373 4.04772 6.00253 4.52513 5.52513L3.81802 4.81802C3.12385 5.51219 2.80481 6.39959 2.65091 7.54429C2.49894 8.67461 2.5 10.1285 2.5 12H3.5ZM4.52513 18.4749C4.04772 17.9975 3.78098 17.3563 3.64199 16.3225C3.50106 15.2743 3.5 13.8998 3.5 12H2.5C2.5 13.8715 2.49894 15.3254 2.65091 16.4557C2.80481 17.6004 3.12385 18.4878 3.81802 19.182L4.52513 18.4749ZM11 19.5C9.10025 19.5 7.72573 19.4989 6.67754 19.358C5.64373 19.219 5.00253 18.9523 4.52513 18.4749L3.81802 19.182C4.51219 19.8762 5.39959 20.1952 6.54429 20.3491C7.67461 20.5011 9.12852 20.5 11 20.5V19.5ZM13 19.5H11V20.5H13V19.5ZM19.4749 18.4749C18.9975 18.9523 18.3563 19.219 17.3225 19.358C16.2743 19.4989 14.8998 19.5 13 19.5V20.5C14.8715 20.5 16.3254 20.5011 17.4557 20.3491C18.6004 20.1952 19.4878 19.8762 20.182 19.182L19.4749 18.4749ZM20.5 12C20.5 13.8998 20.4989 15.2743 20.358 16.3225C20.219 17.3563 19.9523 17.9975 19.4749 18.4749L20.182 19.182C20.8762 18.4878 21.1952 17.6004 21.3491 16.4557C21.5011 15.3254 21.5 13.8715 21.5 12H20.5ZM19.4749 5.52513C19.9523 6.00253 20.219 6.64373 20.358 7.67754C20.4989 8.72573 20.5 10.1002 20.5 12H21.5C21.5 10.1285 21.5011 8.67461 21.3491 7.54429C21.1952 6.39959 20.8762 5.51219 20.182 4.81802L19.4749 5.52513ZM17.2655 4.63451C18.3329 4.77133 18.9888 5.03909 19.4749 5.52513L20.182 4.81802C19.475 4.11107 18.5678 3.79325 17.3926 3.64262L17.2655 4.63451ZM16.5 4.43245L16.5 6.5L17.5 6.5L17.5 4.43245L16.5 4.43245ZM16.5 6.5C16.5 7.05228 16.0523 7.5 15.5 7.5L15.5 8.5C16.6046 8.5 17.5 7.60457 17.5 6.5L16.5 6.5ZM15.5 7.5C14.9477 7.5 14.5 7.05229 14.5 6.5L13.5 6.5C13.5 7.60457 14.3954 8.5 15.5 8.5L15.5 7.5ZM14.5 6.5L14.5 4.30005L13.5 4.30005L13.5 6.5L14.5 6.5ZM13 4.5C13.2413 4.5 13.4745 4.5 13.7002 4.50031L13.7016 3.50031C13.475 3.5 13.2412 3.5 13 3.5V4.5ZM11 4.5H13V3.5H11V4.5ZM10.2998 4.50031C10.5255 4.5 10.7587 4.5 11 4.5V3.5C10.7588 3.5 10.525 3.5 10.2984 3.50031L10.2998 4.50031ZM9.5 4.30005L9.5 6.5L10.5 6.5L10.5 4.30005L9.5 4.30005ZM9.5 6.5C9.5 7.05228 9.05229 7.5 8.50001 7.5L8.50001 8.5C9.60458 8.5 10.5 7.60457 10.5 6.5L9.5 6.5ZM8.50001 7.5C7.94772 7.5 7.5 7.05229 7.5 6.5L6.5 6.5C6.50001 7.60457 7.39544 8.5 8.50001 8.5L8.50001 7.5ZM7.5 6.5L7.5 4.43245L6.5 4.43245L6.5 6.5L7.5 6.5ZM14.5 4.30005C14.5 4.24365 14.5011 4.15103 14.4901 4.06919C14.4771 3.97289 14.44 3.82141 14.3099 3.6912L13.6023 4.39783C13.5632 4.35858 13.536 4.31452 13.5191 4.27335C13.5038 4.23616 13.4998 4.20854 13.499 4.20251C13.4982 4.1968 13.499 4.19963 13.4995 4.21941C13.5 4.23894 13.5 4.26292 13.5 4.30005L14.5 4.30005ZM13.7002 4.50031C13.7373 4.50036 13.7612 4.50042 13.7807 4.50094C13.8005 4.50147 13.8033 4.50223 13.7975 4.50145C13.7914 4.50062 13.7638 4.49657 13.7266 4.48121C13.6855 4.4642 13.6415 4.43703 13.6023 4.39783L14.3099 3.6912C14.18 3.56107 14.0287 3.52368 13.9323 3.51057C13.8505 3.49944 13.7579 3.50038 13.7016 3.50031L13.7002 4.50031ZM17.3926 3.64262C17.3322 3.63488 17.2329 3.62089 17.1438 3.62239C17.0374 3.62418 16.8699 3.64746 16.7206 3.77888L17.3812 4.52959C17.3375 4.56808 17.2881 4.59383 17.2408 4.60829C17.1984 4.62127 17.1674 4.62213 17.1607 4.62225C17.1543 4.62236 17.1573 4.62185 17.1787 4.62401C17.1998 4.62613 17.2256 4.6294 17.2655 4.63451L17.3926 3.64262ZM17.5 4.43245C17.5 4.39158 17.5 4.36479 17.5006 4.34294C17.5012 4.32072 17.5021 4.31699 17.5013 4.32256C17.5005 4.32836 17.496 4.35846 17.478 4.39865C17.4579 4.44358 17.426 4.49016 17.3812 4.52959L16.7206 3.77888C16.5696 3.91173 16.5263 4.07708 16.5114 4.18101C16.4988 4.26916 16.5 4.36988 16.5 4.43245L17.5 4.43245ZM10.2984 3.50031C10.2421 3.50038 10.1495 3.49944 10.0677 3.51057C9.97134 3.52368 9.82003 3.56107 9.69007 3.6912L10.3977 4.39783C10.3585 4.43703 10.3145 4.4642 10.2734 4.48121C10.2362 4.49657 10.2086 4.50062 10.2025 4.50145C10.1967 4.50223 10.1995 4.50147 10.2193 4.50094C10.2388 4.50042 10.2627 4.50036 10.2998 4.50031L10.2984 3.50031ZM10.5 4.30005C10.5 4.26292 10.5 4.23894 10.5005 4.21941C10.501 4.19963 10.5018 4.1968 10.501 4.20251C10.5002 4.20854 10.4962 4.23616 10.4809 4.27335C10.464 4.31452 10.4369 4.35858 10.3977 4.39783L9.69007 3.6912C9.56003 3.82141 9.5229 3.97289 9.50995 4.06919C9.49894 4.15103 9.5 4.24365 9.5 4.30005L10.5 4.30005ZM6.73451 4.63451C6.77437 4.6294 6.80019 4.62613 6.82126 4.62401C6.84266 4.62185 6.84572 4.62236 6.83932 4.62225C6.83256 4.62213 6.80164 4.62127 6.75921 4.60829C6.71195 4.59383 6.66251 4.56808 6.61878 4.52959L7.27941 3.77888C7.13007 3.64746 6.96264 3.62418 6.85616 3.62239C6.76714 3.62089 6.66782 3.63487 6.60738 3.64262L6.73451 4.63451ZM7.5 4.43245C7.5 4.36988 7.50121 4.26916 7.4886 4.18101C7.47374 4.07708 7.43038 3.91173 7.27941 3.77888L6.61878 4.52959C6.57398 4.49016 6.54207 4.44358 6.522 4.39865C6.50405 4.35846 6.4995 4.32837 6.49867 4.32256C6.49788 4.31699 6.49879 4.32072 6.49938 4.34294C6.49997 4.36479 6.5 4.39158 6.5 4.43245L7.5 4.43245Z" fill="black"/>
<path d="M8.5 2.5L8.5 6.5" stroke="#222222" stroke-linecap="round"/>
<path d="M15.5 2.5L15.5 6.5" stroke="#222222" stroke-linecap="round"/>
<circle cx="7.5" cy="10.5" r="0.5" fill="#222222"/>
<circle cx="10.5" cy="10.5" r="0.5" fill="#222222"/>
<circle cx="13.5" cy="10.5" r="0.5" fill="#222222"/>
<circle cx="16.5" cy="10.5" r="0.5" fill="#222222"/>
<circle cx="7.5" cy="13.5" r="0.5" fill="#222222"/>
<circle cx="10.5" cy="13.5" r="0.5" fill="#222222"/>
<circle cx="13.5" cy="13.5" r="0.5" fill="#222222"/>
<circle cx="16.5" cy="13.5" r="0.5" fill="#222222"/>
<circle cx="7.5" cy="16.5" r="0.5" fill="#222222"/>
<circle cx="10.5" cy="16.5" r="0.5" fill="#222222"/>
<circle cx="13.5" cy="16.5" r="0.5" fill="#222222"/>
<circle cx="16.5" cy="16.5" r="0.5" fill="#222222"/>
</svg>
